<mxfile host="app.diagrams.net" modified="2024-01-17T07:10:44.919Z" agent="Mozilla/5.0 (Macintosh; Intel Mac OS X 10_15_7) AppleWebKit/537.36 (KHTML, like Gecko) Chrome/120.0.0.0 Safari/537.36" etag="KJdRiOsSxKXVhTo8iEnq" version="22.1.18" type="github">
  <diagram name="第 1 页" id="fqAmn3Mc_cYEZuJ6Nvqm">
    <mxGraphModel dx="984" dy="660" grid="1" gridSize="10" guides="1" tooltips="1" connect="1" arrows="1" fold="1" page="1" pageScale="1" pageWidth="827" pageHeight="1169" math="0" shadow="0">
      <root>
        <mxCell id="0" />
        <mxCell id="1" parent="0" />
        <mxCell id="aq6fK1HUbCzqmZBROO30-1" value="雪莉宠物科技有限公司" style="rounded=0;whiteSpace=wrap;html=1;" vertex="1" parent="1">
          <mxGeometry x="140" y="160" width="569" height="40" as="geometry" />
        </mxCell>
        <mxCell id="aq6fK1HUbCzqmZBROO30-2" value="" style="rounded=0;whiteSpace=wrap;html=1;" vertex="1" parent="1">
          <mxGeometry y="160" width="120" height="320" as="geometry" />
        </mxCell>
        <mxCell id="aq6fK1HUbCzqmZBROO30-4" value="上游" style="rounded=0;whiteSpace=wrap;html=1;" vertex="1" parent="1">
          <mxGeometry y="80" width="120" height="60" as="geometry" />
        </mxCell>
        <mxCell id="aq6fK1HUbCzqmZBROO30-9" value="我们" style="rounded=0;whiteSpace=wrap;html=1;" vertex="1" parent="1">
          <mxGeometry x="140" y="80" width="570" height="60" as="geometry" />
        </mxCell>
        <mxCell id="aq6fK1HUbCzqmZBROO30-10" value="" style="rounded=0;whiteSpace=wrap;html=1;" vertex="1" parent="1">
          <mxGeometry x="730" y="160" width="120" height="320" as="geometry" />
        </mxCell>
        <mxCell id="aq6fK1HUbCzqmZBROO30-11" value="下游" style="rounded=0;whiteSpace=wrap;html=1;" vertex="1" parent="1">
          <mxGeometry x="730" y="80" width="120" height="60" as="geometry" />
        </mxCell>
        <mxCell id="aq6fK1HUbCzqmZBROO30-12" value="原材料" style="rounded=0;whiteSpace=wrap;html=1;" vertex="1" parent="1">
          <mxGeometry y="160" width="120" height="60" as="geometry" />
        </mxCell>
      </root>
    </mxGraphModel>
  </diagram>
</mxfile>
